# xmcd CD database file
#
# Track frame offsets:
#	150
#	14046
#	28655
#	47455
#	60642
#	78372
#	94764
#	109342
#	124096
#	139503
#	156506
#	175478
#	189172
#
# Disc length: 2740 seconds
#
# Revision: 12
# Processed by: cddbd v1.5.2PL0 Copyright (c) Steve Scherf et al.
# Submitted via: CDex 2.21
#
DISCID=ab0ab20d
DTITLE=Terri Clark - Raising the Bar
DYEAR=2018
DGENRE=Country
TTITLE0=Givin' up Givin' a Damn
TTITLE1=Cowboys in This Town
TTITLE2=Weddings, Funerals, and Empty Hotel Bars
TTITLE3=Young as We Are Tonight
TTITLE4=Half a Bottle Down
TTITLE5=Bloody Mary Morning
TTITLE6=Watered Down Whiskey
TTITLE7=As Long as There's a Bar
TTITLE8=Right Where You Left Me
TTITLE9=You Can Have This Town
TTITLE10=The One That Got Away
TTITLE11=The Encore
TTITLE12=Better Than I Was
EXTD=YEAR: 2018
EXTT0=
EXTT1=
EXTT2=
EXTT3=
EXTT4=
EXTT5=
EXTT6=
EXTT7=
EXTT8=
EXTT9=
EXTT10=
EXTT11=
EXTT12=
PLAYORDER=
